<svg width="39" height="40" viewBox="0 0 39 40" fill="none" xmlns="http://www.w3.org/2000/svg">
<path fill-rule="evenodd" clip-rule="evenodd" d="M16.9332 4.97033V3.71279H21.7081V4.97033C21.7081 8.42271 24.4885 11.2395 27.9634 11.2395C29.0248 11.2395 30.004 10.9766 30.8741 10.5158C31.0306 10.4359 31.1685 10.3499 31.2485 10.2993L32.1926 9.75468L34.5948 13.9139L33.5148 14.5384C33.5041 14.5443 33.492 14.551 33.4792 14.5583L33.4762 14.56C33.4626 14.5678 33.4343 14.5839 33.396 14.6085C31.5686 15.7039 30.3485 17.7101 30.3485 20.0005V20.0051C30.3485 22.2541 31.5295 24.2321 33.3205 25.3386C33.3468 25.3576 33.3723 25.3752 33.397 25.3913C33.4314 25.4138 33.4647 25.4339 33.4963 25.4518L34.6068 26.0905L32.2065 30.2463L31.259 29.6996C31.1434 29.6278 31.0329 29.5643 30.9275 29.5064L30.9173 29.5008L30.9071 29.4953C30.0304 29.0273 29.0398 28.7615 27.9726 28.7615C24.4919 28.7615 21.7174 31.5795 21.7174 35.0307V36.2882H16.9378V35.0307C16.9378 31.5655 14.1216 28.7615 10.6594 28.7615C9.60246 28.7615 8.61065 29.0222 7.73394 29.4832C7.58554 29.5586 7.45357 29.6377 7.3536 29.7002L6.40352 30.2483L4.00169 26.0898L5.01232 25.507C5.0372 25.4953 5.06439 25.4819 5.09315 25.4667C5.11817 25.4534 5.1484 25.4367 5.18237 25.4163C7.03276 24.3384 8.30675 22.3269 8.30675 20.0051V20.0005C8.30675 17.6694 7.01815 15.6521 5.15786 14.5751L5.10874 14.5467L5.05796 14.5213L5.04399 14.5144L4.00188 13.9149L6.40262 9.75483L7.34996 10.3014C7.46545 10.3732 7.57594 10.4366 7.68138 10.4946L7.69154 10.5002L7.70177 10.5057C8.58572 10.9776 9.59563 11.2395 10.6548 11.2395C14.1228 11.2395 16.9332 8.43418 16.9332 4.97033ZM16.1351 0.000488281C14.4741 0.000488281 13.2209 1.35653 13.2209 2.9332V4.97033C13.2209 6.37886 12.0777 7.52717 10.6548 7.52717C10.2145 7.52717 9.80784 7.41982 9.45955 7.23587C9.39496 7.20015 9.34374 7.17005 9.29792 7.14111L9.2665 7.12127L7.67645 6.20393L7.42339 6.05346L7.32588 6.00975C6.97715 5.85343 6.56635 5.74991 6.12114 5.74991C5.06057 5.74991 4.13365 6.31145 3.61911 7.15229L3.60663 7.17268L0.423937 12.6878L0.365418 12.7853L0.342733 12.828C0.128254 13.2318 0.000488281 13.7011 0.000488281 14.2C0.000488281 15.2478 0.548782 16.163 1.36754 16.6795L1.39188 16.6948L1.50337 16.7604L3.31685 17.8035L3.36134 17.8258C4.11009 18.2875 4.59446 19.0992 4.59446 20.0005V20.0051C4.59446 20.9056 4.11635 21.7091 3.38261 22.1671L3.36065 22.1779L3.31126 22.2026L1.50246 23.2458L1.39188 23.3108L1.36754 23.3262C0.544923 23.845 0.000488281 24.7668 0.000488281 25.8056C0.000488281 26.3045 0.128251 26.7738 0.342733 27.1776L0.365418 27.2203L0.424098 27.3181L3.60993 32.834L3.62566 32.8593C4.13207 33.6745 5.04806 34.2511 6.12114 34.2511C6.56634 34.2511 6.97714 34.1476 7.32588 33.9912L7.41351 33.9519L9.27114 32.8797L9.30256 32.8599C9.37149 32.8163 9.40398 32.7986 9.41527 32.7929L9.43486 32.7831L9.45421 32.7729C9.81675 32.5808 10.2201 32.4738 10.6594 32.4738C12.0789 32.4738 13.2255 33.6234 13.2255 35.0307V37.0678C13.2255 38.6345 14.4736 40.0005 16.1397 40.0005H22.4692C24.0166 40.0005 25.4297 38.7526 25.4297 37.0678V35.0307C25.4297 33.6094 26.5625 32.4738 27.9726 32.4738C28.405 32.4738 28.7941 32.5774 29.1491 32.765C29.2138 32.8008 29.2651 32.8309 29.3109 32.8599L29.3424 32.8797L30.9324 33.797L31.1855 33.9475L31.283 33.9912C31.6317 34.1476 32.0425 34.2511 32.4877 34.2511C33.5483 34.2511 34.4752 33.6895 34.9898 32.8487L35.0021 32.8286L38.1847 27.3181L38.2435 27.2203L38.2661 27.1776C38.4806 26.7739 38.6084 26.3045 38.6084 25.8056C38.6084 24.7578 38.0601 23.8426 37.2413 23.3262L37.217 23.3108L37.1055 23.2452L35.4716 22.3054C35.4542 22.2932 35.4372 22.2818 35.4207 22.2709C35.3885 22.2499 35.3573 22.231 35.3275 22.2139C34.563 21.7682 34.0608 20.9472 34.0608 20.0051V20.0005C34.0608 19.0477 34.5694 18.2225 35.3277 17.7789L35.3974 17.7381L37.1196 16.7422L37.2242 16.6769L37.2274 16.6748C38.05 16.1559 38.5945 15.2341 38.5945 14.1954C38.5945 13.6964 38.4667 13.2271 38.2522 12.8234L38.2295 12.7807L38.1708 12.6828L34.985 7.16699L34.9693 7.14168C34.4629 6.32647 33.5469 5.74991 32.4738 5.74991C32.0286 5.74991 31.6178 5.85343 31.2691 6.00975L31.1716 6.05346L30.9185 6.20393L29.3284 7.12127L29.297 7.14111C29.2497 7.17103 29.225 7.18648 29.2034 7.19938C29.1935 7.20533 29.1879 7.20849 29.1858 7.20962L29.1849 7.21011L29.1668 7.21913L29.1449 7.2308C28.7854 7.42271 28.3976 7.52717 27.9634 7.52717C26.5566 7.52717 25.4204 6.39033 25.4204 4.97033V2.9332C25.4204 1.25326 24.017 0.000488281 22.4599 0.000488281H16.1351ZM35.2488 17.8205C35.2403 17.8248 35.2375 17.8261 35.2436 17.8231L35.2488 17.8205ZM14.765 20.0006C14.765 17.4942 16.7969 15.4623 19.3033 15.4623C21.8097 15.4623 23.8416 17.4942 23.8416 20.0006C23.8416 22.507 21.8097 24.5389 19.3033 24.5389C16.7969 24.5389 14.765 22.507 14.765 20.0006ZM19.3033 11.75C14.7466 11.75 11.0527 15.4439 11.0527 20.0006C11.0527 24.5572 14.7466 28.2512 19.3033 28.2512C23.86 28.2512 27.5539 24.5572 27.5539 20.0006C27.5539 15.4439 23.86 11.75 19.3033 11.75Z" fill="white"/>
</svg>
