<svg width="12" height="16" viewBox="0 0 12 16" fill="none" xmlns="http://www.w3.org/2000/svg">
<path fill-rule="evenodd" clip-rule="evenodd" d="M3.36031 0.240087L4.42042 4.07669C4.4709 4.3291 4.42042 4.58151 4.21849 4.73295L2.85549 5.79307C2.60308 5.99499 2.75453 6.14644 2.85549 6.39885C3.56223 8.11522 4.4709 9.73063 5.63198 11.2451C5.83391 11.447 5.88439 11.6489 6.18728 11.548L7.75221 10.8917C8.00462 10.7907 8.25702 10.8412 8.45895 11.0432L11.2354 13.9206C11.4374 14.0721 11.2354 14.3749 11.084 14.5769C10.3773 15.3846 9.72099 16.0913 8.8628 15.9904C4.21849 15.3846 -1.43545 5.54066 0.331409 1.24972C0.68478 0.442014 1.64393 0.240087 2.65356 0.0381605C2.95645 -0.0123211 3.25934 -0.0628027 3.36031 0.240087Z" fill="white"/>
</svg>
