<svg width="16" height="14" viewBox="0 0 16 14" fill="none" xmlns="http://www.w3.org/2000/svg">
<path fill-rule="evenodd" clip-rule="evenodd" d="M3.96921 8.09629L0.282485 6.71344C-0.0919684 6.57242 -0.0952217 6.04115 0.278165 5.89644L15.4086 0.0305323C15.7293 -0.0941385 16.0603 0.188273 15.9905 0.526803L13.2752 13.6527C13.2112 13.9626 12.8496 14.1031 12.5944 13.9167L8.88789 11.2123C8.66276 11.048 8.35594 11.0568 8.14052 11.2332L6.08548 12.9169C5.84692 13.1129 5.48751 13.0037 5.3962 12.7083L3.96921 8.09629ZM12.3717 2.90058L5.1665 7.36038C4.89034 7.53168 4.76031 7.86683 4.84954 8.1806L5.62858 10.9316C5.68389 11.1265 5.96543 11.1065 5.99226 10.9051L6.19482 9.39649C6.23301 9.11247 6.36783 8.8508 6.57685 8.65527L12.5233 3.10029C12.6345 2.99663 12.5012 2.82067 12.3717 2.90058Z" fill="#FFCA00"/>
</svg>
