<svg width="16" height="14" viewBox="0 0 16 14" fill="none" xmlns="http://www.w3.org/2000/svg">
<path d="M15.9999 1.65787C15.4049 1.93895 14.7709 2.12526 14.1099 2.21572C14.7899 1.77849 15.3089 1.09141 15.5529 0.263258C14.9189 0.670335 14.2189 0.957873 13.4729 1.11834C12.8709 0.428027 12.0129 0.000488806 11.0769 0.000488765C9.26088 0.000488686 7.79888 1.58787 7.79888 3.53387C7.79888 3.81387 7.82088 4.0831 7.87488 4.33941C5.14788 4.19618 2.73488 2.78864 1.11388 0.644488C0.830878 1.17326 0.664878 1.77849 0.664878 2.43003C0.664878 3.65341 1.24988 4.73787 2.12188 5.36572C1.59488 5.35495 1.07788 5.19018 0.639878 4.93064C0.639878 4.94141 0.639878 4.95541 0.639878 4.96941C0.639878 6.68603 1.77688 8.11187 3.26788 8.44033C3.00088 8.51895 2.70988 8.55664 2.40788 8.55664C2.19788 8.55664 1.98588 8.54372 1.78688 8.49633C2.21188 9.89526 3.41788 10.9237 4.85188 10.9571C3.73588 11.8973 2.31888 12.4637 0.784877 12.4637C0.515877 12.4637 0.257877 12.4508 -0.000122613 12.4153C1.45288 13.4243 3.17488 14.0005 5.03188 14.0005C11.0679 14.0005 14.3679 8.61587 14.3679 3.94849C14.3679 3.79233 14.3629 3.64157 14.3559 3.49187C15.0069 2.99433 15.5539 2.37295 15.9999 1.65787Z" fill="#FFCA00"/>
</svg>
