<svg width="40" height="40" viewBox="0 0 40 40" fill="none" xmlns="http://www.w3.org/2000/svg">
<path fill-rule="evenodd" clip-rule="evenodd" d="M14.0867 3.70585V7.05042H25.8528V3.70585H14.0867ZM10.3809 14.3138V10.7563H3.70585V34.256C3.70585 35.3728 4.62728 36.2942 5.74406 36.2942H34.1957C35.311 36.2942 36.235 35.3738 36.2386 34.2541V10.7563H29.5586V14.3138H25.8528V10.7563H14.0867V14.3138H10.3809ZM10.3809 3.10365V7.05042H0V34.256C0 37.4194 2.5806 40 5.74406 40H34.1957C37.36 40 39.9376 37.4195 39.9444 34.26L39.9444 34.258V7.05042H29.5586V3.10365C29.5586 1.38563 28.1594 0 26.455 0H13.4845C11.771 0 10.3809 1.39009 10.3809 3.10365ZM29.9803 27.1547H9.95947V30.8605H29.9803V27.1547Z" fill="white"/>
</svg>
