<svg width="24" height="24" viewBox="0 0 24 24" fill="none" xmlns="http://www.w3.org/2000/svg">
<path d="M6 3C6 2.45828 5.5738 2 5.03209 2L3.5607 2C3.13689 2 2.75589 2.26623 2.6338 2.67208C2.22155 4.04242 2 5.49534 2 7C2 8.653 2.26738 10.2435 2.76125 11.7307C4.23973 16.183 7.74803 19.709 12.1891 21.2119L12.2693 21.2388C13.7565 21.7326 15.347 22 17 22C18.5047 22 19.9576 21.7785 21.3279 21.3662C21.7338 21.2441 22 20.8631 22 20.4393V18.9679C22 18.4262 21.5417 18 21 18C19.3771 18 17.8145 17.7423 16.3507 17.2655C15.3671 16.9452 14.2539 17.2791 13.7326 18.1726L13.0273 19.3818C9.04287 18.1044 5.89559 14.9571 4.61822 10.9727L5.82738 10.2674C6.7209 9.74614 7.05482 8.63292 6.73447 7.64934C6.25772 6.18555 6 4.62287 6 3Z" fill="#222222"/>
</svg>
