<svg width="20" height="20" viewBox="0 0 20 20" fill="none" xmlns="http://www.w3.org/2000/svg">
<path fill-rule="evenodd" clip-rule="evenodd" d="M19 10C19 14.9706 14.9706 19 10 19C5.02944 19 1 14.9706 1 10C1 5.02944 5.02944 1 10 1C14.9706 1 19 5.02944 19 10ZM20 10C20 15.5228 15.5228 20 10 20C4.47715 20 0 15.5228 0 10C0 4.47715 4.47715 0 10 0C15.5228 0 20 4.47715 20 10ZM9.35355 12.8536L13.8536 8.35355L13.1464 7.64645L9 11.7929L7.35355 10.1464L6.64645 10.8536L8.64645 12.8536C8.84171 13.0488 9.15829 13.0488 9.35355 12.8536Z" fill="#222222"/>
</svg>
