<svg width="16" height="16" viewBox="0 0 16 16" fill="none" xmlns="http://www.w3.org/2000/svg">
<path d="M15.0713 0.92888C14.6807 0.538355 14.0476 0.538356 13.657 0.92888L8.00019 6.58573L2.34334 0.928879C1.95281 0.538355 1.31965 0.538355 0.929124 0.928879C0.5386 1.3194 0.5386 1.95257 0.929124 2.34309L6.58598 7.99995L0.929124 13.6568C0.5386 14.0473 0.538599 14.6805 0.929124 15.071C1.31965 15.4615 1.95281 15.4615 2.34334 15.071L8.00019 9.41416L13.657 15.071C14.0476 15.4615 14.6807 15.4615 15.0713 15.071C15.4618 14.6805 15.4618 14.0473 15.0713 13.6568L9.4144 7.99995L15.0713 2.34309C15.4618 1.95257 15.4618 1.3194 15.0713 0.92888Z" fill="#111111"/>
</svg>
