<svg width="16" height="16" viewBox="0 0 16 16" fill="none" xmlns="http://www.w3.org/2000/svg">
<path d="M15.0711 0.92888C14.6806 0.538355 14.0474 0.538356 13.6569 0.92888L8.00001 6.58573L2.34315 0.928879C1.95263 0.538355 1.31947 0.538355 0.928941 0.928879C0.538417 1.3194 0.538417 1.95257 0.928941 2.34309L6.5858 7.99995L0.928941 13.6568C0.538417 14.0473 0.538416 14.6805 0.928941 15.071C1.31947 15.4615 1.95263 15.4615 2.34315 15.071L8.00001 9.41416L13.6569 15.071C14.0474 15.4615 14.6806 15.4615 15.0711 15.071C15.4616 14.6805 15.4616 14.0473 15.0711 13.6568L9.41422 7.99995L15.0711 2.34309C15.4616 1.95257 15.4616 1.3194 15.0711 0.92888Z" fill="white"/>
</svg>
