<svg width="140" height="20" viewBox="0 0 140 20" fill="none" xmlns="http://www.w3.org/2000/svg">
<g clip-path="url(#clip0)">
<path fill-rule="evenodd" clip-rule="evenodd" d="M52.2964 15.288L48.7767 19.1361H47.9362V10.6021L50.1163 8.2199V3.87435C50.1163 1.72775 51.8499 0 54.0037 0H59.7035V3.03665L58.9418 3.87435H52.2964C52.2964 8.97906 52.2964 10.1832 52.2964 15.288Z" fill="white" fill-opacity="0.6"/>
<path fill-rule="evenodd" clip-rule="evenodd" d="M85.4447 0C90.7505 0 95.0582 4.29319 95.0582 9.58115C95.0582 14.8691 90.7505 19.1623 85.4447 19.1623H81.0845V15.2618H85.4447C88.5967 15.2618 91.1708 12.7225 91.1708 9.55497C91.1708 6.41361 88.6229 3.84817 85.4447 3.84817H82.5029L79.7186 0.837696V0H85.4447Z" fill="white" fill-opacity="0.6"/>
<path fill-rule="evenodd" clip-rule="evenodd" d="M16.5478 9.60733L10.8743 15.9424H10.0338L4.36023 9.60733V19.1361H3.5197L2.18011 17.6702V7.22513L0 4.84293V0H0.840525L10.454 10.5497L20.0675 0H20.9081V4.84293L18.728 7.22513V17.6702L17.3884 19.1361H16.5478V9.60733Z" fill="white" fill-opacity="0.6"/>
<path d="M50.09 0H41.8424V3.87435H50.09V0Z" fill="white" fill-opacity="0.6"/>
<path fill-rule="evenodd" clip-rule="evenodd" d="M68.6867 20C74.2289 20 78.7205 15.5236 78.7205 10C78.7205 8.58639 78.4315 7.25131 77.9062 6.04712H74.0451V6.98953C74.5441 7.87958 74.833 8.90052 74.833 10C74.833 13.377 72.0751 16.1257 68.6867 16.1257H61.5948V17.0681C63.4072 18.9005 65.9025 20 68.6867 20ZM75.7786 2.93194V3.87435H68.6867C65.2983 3.87435 62.5404 6.62304 62.5404 10C62.5404 11.0995 62.8293 12.1204 63.3284 13.0105V13.9529H59.4672C58.9419 12.7487 58.653 11.4136 58.653 10C58.653 4.47644 63.1445 0 68.6867 0C71.4447 0 73.94 1.12565 75.7786 2.93194Z" fill="white" fill-opacity="0.6"/>
<path fill-rule="evenodd" clip-rule="evenodd" d="M135.64 9.60733L129.966 15.9424H129.126L123.452 9.60733V19.1361H122.612L121.272 17.6702V7.22513L119.092 4.84293V0H119.932L129.546 10.5497L139.159 0H140V4.84293L137.82 7.22513V17.6702L136.48 19.1361H135.64V9.60733Z" fill="white" fill-opacity="0.6"/>
<path fill-rule="evenodd" clip-rule="evenodd" d="M107.377 20C112.919 20 117.411 15.5236 117.411 10C117.411 8.58639 117.122 7.25131 116.597 6.04712H112.736V6.98953C113.235 7.87958 113.524 8.90052 113.524 10C113.524 13.377 110.766 16.1257 107.377 16.1257H100.285V17.0681C102.098 18.9005 104.593 20 107.377 20ZM114.469 2.93194V3.87435H107.377C103.989 3.87435 101.231 6.62304 101.231 10C101.231 11.0995 101.52 12.1204 102.019 13.0105V13.9529H98.1576C97.6323 12.7487 97.3434 11.4136 97.3434 10C97.3434 4.47644 101.835 0 107.377 0C110.135 0 112.657 1.12565 114.469 2.93194Z" fill="white" fill-opacity="0.6"/>
<path fill-rule="evenodd" clip-rule="evenodd" d="M32.6229 20C38.1651 20 42.6567 15.5236 42.6567 10C42.6567 8.58639 42.3677 7.25131 41.8424 6.04712H37.9812V6.98953C38.4803 7.87958 38.7692 8.90052 38.7692 10C38.7692 13.377 36.0112 16.1257 32.6229 16.1257H25.5309V17.0681C27.3696 18.9005 29.8649 20 32.6229 20ZM39.7148 2.93194V3.87435H32.6229C29.2345 3.87435 26.4765 6.62304 26.4765 10C26.4765 11.0995 26.7655 12.1204 27.2645 13.0105V13.9529H23.4034C22.878 12.7487 22.5891 11.4136 22.5891 10C22.5891 4.47644 27.0807 0 32.6229 0C35.4071 0 37.9024 1.12565 39.7148 2.93194Z" fill="white" fill-opacity="0.6"/>
</g>
<defs>
<clipPath id="clip0">
</clipPath>
</defs>
</svg>
