<svg width="16" height="13" viewBox="0 0 16 13" fill="none" xmlns="http://www.w3.org/2000/svg">
<path fill-rule="evenodd" clip-rule="evenodd" d="M11.6959 0.00146773C13.7324 0.00146756 14.7987 0.299919 15.3762 1.03158C15.9565 1.76649 15.9999 2.89215 15.9999 4.52549L15.9999 7.4775C15.9999 9.34917 15.7229 10.4303 15.0736 11.0924C14.4406 11.7381 13.462 12.0015 11.696 12.0015L4.30367 12.0015C0.66548 12.0015 -0.000122152 10.478 -0.000122128 7.4775L-0.000120164 4.52549C-0.000120093 2.97669 -0.000120041 1.85763 0.560861 1.09814C1.13624 0.319172 2.22063 0.00146925 4.30367 0.00146977L11.6959 0.00146773ZM6.91524 8.27702L10.272 6.40738C10.4426 6.31244 10.5494 6.12427 10.5491 5.91911C10.5489 5.71411 10.4416 5.52621 10.2708 5.43172L6.91405 3.57412C6.7541 3.48557 6.56236 3.49239 6.40819 3.59217C6.25407 3.69194 6.16004 3.87016 6.16004 4.06223L6.16004 7.78952C6.16004 7.98192 6.25433 8.1603 6.40876 8.26002C6.49077 8.31294 6.58336 8.33956 6.67617 8.33956C6.75813 8.33956 6.84019 8.31882 6.91524 8.27702Z" fill="#FFCA00"/>
</svg>
