<svg width="32" height="32" viewBox="0 0 32 32" fill="none" xmlns="http://www.w3.org/2000/svg">
<path fill-rule="evenodd" clip-rule="evenodd" d="M13.3603 8.24009L14.4204 12.0767C14.4709 12.3291 14.4204 12.5815 14.2185 12.733L12.8555 13.7931C12.6031 13.995 12.7545 14.1464 12.8555 14.3988C13.5622 16.1152 14.4709 17.7306 15.632 19.2451C15.8339 19.447 15.8844 19.6489 16.1873 19.548L17.7522 18.8917C18.0046 18.7907 18.257 18.8412 18.459 19.0432L21.2354 21.9206C21.4374 22.0721 21.2354 22.3749 21.084 22.5769C20.3773 23.3846 19.721 24.0913 18.8628 23.9904C14.2185 23.3846 8.56455 13.5407 10.3314 9.24972C10.6848 8.44201 11.6439 8.24009 12.6536 8.03816C12.9565 7.98768 13.2593 7.9372 13.3603 8.24009Z" fill="white"/>
<circle cx="16" cy="16" r="15.5" stroke="#363535"/>
</svg>
